<?xml version="1.0" standalone="no"?>
<!DOCTYPE svg PUBLIC "-//W3C//DTD SVG 20010904//EN"
 "http://www.w3.org/TR/2001/REC-SVG-20010904/DTD/svg10.dtd">
<svg version="1.0" xmlns="http://www.w3.org/2000/svg"
 width="460.000000pt" height="460.000000pt" viewBox="0 0 460.000000 460.000000"
 preserveAspectRatio="xMidYMid meet">
<metadata>
Created by potrace 1.11, written by Peter Selinger 2001-2013
</metadata>
<g transform="translate(0.000000,460.000000) scale(0.100000,-0.100000)"
fill="#000000" stroke="none">
<path d="M1848 3058 c-16 -5 -28 -14 -28 -19 0 -5 -15 -9 -34 -9 -45 0 -66 -9
-66 -27 0 -8 -13 -19 -29 -24 -15 -6 -33 -21 -39 -34 -7 -14 -16 -25 -21 -25
-18 0 -58 -44 -81 -88 -12 -23 -27 -42 -32 -42 -6 0 -8 -6 -5 -14 3 -8 -1 -20
-9 -26 -8 -7 -14 -19 -14 -27 0 -8 -8 -27 -19 -41 -10 -15 -22 -51 -26 -79 -4
-29 -11 -55 -16 -59 -5 -3 -9 -14 -9 -26 0 -11 -11 -33 -25 -50 -14 -16 -25
-27 -25 -24 0 4 -17 -1 -37 -10 -39 -17 -95 -20 -116 -7 -6 4 -23 7 -37 7 -14
1 -29 4 -35 7 -5 4 -19 4 -30 1 -29 -8 -186 -2 -215 8 -3 1 -17 1 -32 0 -16
-1 -28 3 -28 8 0 13 -115 36 -137 28 -10 -4 -97 -9 -192 -12 -96 -3 -180 -9
-185 -13 -6 -5 -20 -5 -31 0 -44 17 -103 4 -80 -19 3 -3 10 0 14 7 6 9 11 10
15 2 4 -6 22 -11 39 -11 19 0 27 -3 20 -8 -15 -9 -90 -7 -116 3 -9 4 -31 2
-48 -5 -16 -7 -41 -14 -54 -16 -14 -1 -38 -8 -55 -16 l-30 -13 0 -1192 0
-1193 1919 0 1920 0 4 28 4 27 2 -27 1 -28 160 0 160 0 -11 28 c-5 15 -17 32
-26 39 -14 11 -15 26 -10 100 8 99 23 166 38 158 5 -4 7 -19 4 -35 -4 -23 -2
-28 9 -24 22 8 27 -11 15 -58 -20 -78 -21 -94 -10 -136 9 -33 15 -40 29 -35 9
3 14 3 10 -2 -4 -4 -3 -14 3 -22 9 -10 54 -13 195 -13 l184 0 0 49 c0 30 -5
51 -12 54 -10 4 -10 7 0 18 18 19 15 33 -4 14 -11 -11 -20 -13 -28 -5 -7 5
-17 6 -21 2 -5 -4 -5 1 -2 11 4 11 3 16 -3 12 -6 -3 -10 2 -10 11 0 15 -2 15
-17 -2 -10 -10 -29 -20 -43 -22 -13 -1 -28 -8 -32 -15 -4 -6 -8 -8 -8 -3 0 5
-7 3 -15 -4 -9 -7 -49 -15 -90 -18 -63 -4 -75 -2 -75 11 0 9 10 19 22 23 12 3
33 17 47 30 14 13 36 24 48 24 13 0 23 5 23 10 0 6 9 10 21 10 11 0 18 4 15 9
-3 4 -18 6 -33 4 -26 -4 -26 -3 6 12 41 19 128 19 161 0 40 -23 50 -19 50 23
0 36 -2 38 -45 50 -58 15 -58 28 0 24 l45 -4 -2 423 c-3 389 -4 424 -20 424
-9 0 -20 3 -23 7 -4 4 -13 4 -21 1 -8 -3 -14 -1 -14 5 0 6 18 13 40 17 l40 7
0 208 0 209 -27 1 c-85 3 -91 4 -82 22 5 9 9 30 9 47 0 30 13 41 25 21 4 -6
10 -8 15 -5 12 8 41 -6 34 -16 -3 -5 2 -9 10 -9 14 0 16 33 16 284 l0 284 -37
7 c-24 4 -39 3 -41 -4 -5 -14 -22 -14 -22 -1 0 6 12 16 28 23 15 6 31 17 35
24 4 7 15 13 22 13 12 0 15 20 15 107 0 102 -1 105 -18 90 -21 -19 -42 -22
-42 -7 0 20 -28 9 -58 -21 -27 -28 -35 -31 -66 -25 -29 6 -36 4 -36 -9 0 -8
-3 -15 -7 -15 -5 -1 -32 -3 -60 -5 -30 -2 -53 0 -53 6 0 15 -17 10 -24 -7 -3
-8 -2 -13 2 -11 4 3 16 -4 26 -14 19 -19 19 -19 -7 -19 -17 0 -27 -5 -27 -15
0 -8 -5 -15 -11 -15 -6 0 -9 7 -5 15 4 11 -2 15 -27 16 -26 0 -28 2 -12 8 15
6 8 8 -23 8 -36 0 -43 -3 -48 -24 -7 -26 -30 -26 -28 0 1 10 -9 18 -25 21 -52
10 -111 -9 -111 -35 0 -11 -4 -19 -10 -19 -5 0 -10 4 -10 9 0 16 -34 23 -45 9
-5 -8 -28 -15 -50 -16 -22 -2 -47 -10 -57 -19 -10 -9 -40 -20 -68 -24 -28 -4
-62 -17 -77 -28 -14 -12 -31 -21 -37 -21 -6 0 -4 5 4 10 12 8 11 10 -6 10 -11
0 -25 5 -31 11 -6 6 -26 13 -44 15 -26 3 -30 1 -21 -8 21 -21 13 -31 -13 -14
-14 9 -25 12 -25 6 0 -5 5 -10 10 -10 6 0 10 -11 10 -24 0 -30 -45 -45 -67
-23 -12 12 -11 16 12 31 21 14 24 20 15 36 -13 25 -35 26 -45 3 -7 -17 -8 -16
-15 2 -5 11 -9 15 -9 9 -1 -8 -20 -11 -53 -9 -29 2 -52 8 -51 13 1 5 -9 10
-22 10 -13 0 -23 -6 -22 -12 1 -6 -13 -12 -30 -14 -25 -2 -33 -8 -33 -23 0
-14 -7 -19 -25 -19 -14 0 -37 -7 -50 -16 -14 -9 -25 -14 -25 -11 0 4 -19 -1
-42 -9 -45 -16 -78 -11 -78 12 0 8 -6 14 -14 14 -7 0 -30 11 -50 25 -20 14
-43 25 -50 25 -8 0 -17 7 -20 15 -3 9 -11 15 -18 14 -20 -3 -59 16 -102 50
-21 17 -43 31 -47 31 -5 0 -9 28 -9 63 -1 48 -7 75 -29 119 -15 31 -34 63 -42
71 -8 9 -29 40 -48 71 -26 43 -39 56 -57 56 -20 0 -24 5 -24 30 0 17 -4 30 -9
30 -5 0 -14 13 -19 29 -6 16 -24 37 -41 47 -36 21 -46 41 -30 60 6 8 8 14 4
14 -4 0 -13 -8 -20 -17 -11 -15 -17 -13 -61 19 -27 19 -56 35 -64 35 -8 0 -51
6 -95 12 -120 17 -207 21 -237 9z m218 -503 c4 -10 13 -13 24 -10 10 3 21 2
24 -3 8 -13 -48 -22 -99 -17 -50 5 -77 -8 -49 -23 10 -5 30 -8 44 -6 46 7 55
7 118 6 45 -2 62 -6 62 -16 0 -22 30 -41 61 -38 23 3 28 0 23 -12 -3 -9 1 -23
10 -31 9 -9 16 -22 17 -28 2 -34 6 -57 10 -59 2 -2 13 -8 24 -14 11 -6 21 -17
21 -25 1 -8 2 -17 3 -21 0 -5 1 -11 2 -15 0 -5 5 -14 11 -21 6 -7 9 -13 7 -15
-55 -31 -72 -36 -130 -36 -40 0 -75 -5 -94 -15 -16 -9 -41 -14 -55 -11 -18 4
-29 0 -38 -16 -8 -12 -9 -18 -3 -14 6 3 11 1 11 -4 0 -6 -11 -11 -25 -11 -29
0 -33 -15 -6 -23 20 -5 43 -87 45 -159 0 -22 6 -40 14 -43 7 -2 10 0 7 5 -3 6
-1 10 4 10 6 0 10 3 10 8 -6 36 2 44 39 38 20 -3 76 -8 123 -11 81 -6 86 -8
81 -27 -3 -11 -20 -35 -38 -54 -19 -18 -34 -37 -34 -42 0 -17 -45 -57 -61 -54
-10 2 -20 -10 -29 -38 -15 -45 -18 -47 -36 -22 -8 11 -26 17 -50 17 -32 0 -40
5 -56 33 -17 31 -17 33 0 39 21 8 52 33 52 44 0 14 -71 22 -83 10 -17 -17 -40
-13 -77 14 -36 26 -65 32 -75 15 -4 -6 -1 -17 5 -25 14 -17 45 -21 35 -5 -3 6
-1 10 4 10 15 0 14 -6 -5 -46 -9 -19 -20 -31 -26 -28 -5 3 -14 1 -21 -4 -7 -6
-29 -7 -56 -2 -56 10 -93 -11 -84 -48 6 -25 -20 -62 -44 -62 -7 0 -22 9 -33
20 -11 11 -27 20 -35 20 -21 0 -65 30 -65 44 0 6 -14 19 -30 28 -20 11 -30 25
-30 40 0 18 -2 20 -10 8 -19 -30 -21 1 -6 70 16 69 13 107 -5 79 -13 -19 -44
22 -61 81 -13 45 -16 235 -4 247 3 4 20 -7 37 -23 26 -25 28 -30 14 -40 -21
-15 -19 -24 5 -24 12 0 20 -7 20 -17 0 -10 3 -29 6 -43 4 -20 3 -22 -5 -10 -7
9 -11 10 -11 3 0 -6 5 -15 10 -18 18 -11 10 -26 -10 -20 -26 8 -26 -10 0 -28
18 -13 19 -15 5 -21 -9 -3 -21 -4 -26 -1 -5 4 -6 -1 -3 -9 3 -8 12 -12 20 -9
10 4 14 -3 14 -22 0 -15 4 -24 10 -20 6 3 10 17 10 30 0 13 3 26 8 28 6 4 9
-49 3 -63 -9 -20 -9 -75 -1 -88 8 -13 9 -10 5 13 -4 24 -3 26 4 10 5 -11 10
-41 10 -67 1 -27 6 -48 11 -48 6 0 10 18 10 40 0 22 4 40 9 40 18 0 22 66 6
103 -8 21 -19 37 -23 37 -7 0 -9 49 -3 96 0 6 12 9 26 6 21 -4 25 -10 25 -43
0 -21 5 -41 10 -44 7 -4 8 7 4 32 -5 37 14 110 23 86 3 -7 11 -13 18 -13 8 0
16 -9 20 -19 10 -33 101 -82 159 -86 28 -2 53 -4 56 -5 3 -1 15 -1 28 0 12 1
22 -3 22 -8 0 -5 -10 -17 -22 -25 -18 -12 -19 -16 -7 -16 9 -1 30 13 47 29 18
17 29 30 26 30 -4 0 1 12 11 26 9 14 14 31 12 39 -3 7 6 18 19 24 32 14 24 27
-22 36 -20 3 -58 23 -84 44 -33 26 -63 41 -94 45 -25 4 -52 14 -60 22 -8 8
-23 14 -34 14 -11 0 -33 3 -49 6 -25 5 -29 10 -25 30 3 15 11 24 23 24 11 0
19 6 19 14 0 16 45 30 62 20 7 -5 9 0 6 14 -5 18 -2 22 18 22 17 0 27 8 35 27
5 15 33 48 61 75 51 48 51 48 120 48 52 0 70 -4 74 -15z m-1303 -104 c2 -11 0
-24 -6 -30 -6 -6 -8 -14 -4 -18 4 -4 13 -1 19 5 18 18 63 14 82 -7 22 -24 17
-57 -7 -53 -9 2 -17 -2 -17 -8 0 -5 -4 -10 -10 -10 -5 0 -10 11 -10 25 0 19
-6 25 -22 27 -13 0 -29 2 -37 2 -19 1 -25 86 -6 86 7 0 15 -9 18 -19z m-328
-1 c3 -5 -1 -10 -9 -10 -9 0 -16 5 -16 10 0 6 4 10 9 10 6 0 13 -4 16 -10z
m-55 -10 c0 -5 -4 -10 -10 -10 -5 0 -10 5 -10 10 0 6 5 10 10 10 6 0 10 -4 10
-10z m192 -52 c-18 -18 -33 0 -20 22 11 17 14 18 21 4 6 -10 5 -20 -1 -26z
m3608 -18 c0 -5 -4 -10 -9 -10 -6 0 -13 5 -16 10 -3 6 1 10 9 10 9 0 16 -4 16
-10z m88 -17 c-6 -7 -14 -13 -18 -13 -3 0 -7 6 -7 13 0 7 8 13 18 13 13 0 15
-3 7 -13z m-4006 -25 c-10 -10 -44 0 -37 12 3 5 14 6 26 3 12 -3 17 -9 11 -15z
m788 -12 c0 -8 -4 -17 -9 -21 -6 -3 -9 4 -8 15 1 23 17 28 17 6z m-120 -16 c0
-5 -4 -10 -10 -10 -5 0 -10 5 -10 10 0 6 5 10 10 10 6 0 10 -4 10 -10z m-740
-25 c0 -1 -12 -2 -26 -2 -17 0 -22 2 -13 7 10 7 39 3 39 -5z m1354 -61 c8 -24
11 -44 5 -44 -5 0 -9 6 -9 13 0 7 -9 30 -20 52 -24 47 -25 51 -6 36 8 -7 21
-32 30 -57z m2646 56 c0 -5 -2 -10 -4 -10 -3 0 -8 5 -11 10 -3 6 -1 10 4 10 6
0 11 -4 11 -10z m-1461 -40 c5 0 14 -14 20 -31 13 -37 14 -56 4 -45 -5 4 -8
11 -7 14 1 13 -21 29 -32 25 -14 -5 -29 51 -18 68 5 9 10 5 15 -9 5 -12 13
-22 18 -22z m561 24 c0 -9 -7 -14 -17 -12 -25 5 -28 28 -4 28 12 0 21 -6 21
-16z m1108 1 c11 -10 -8 -17 -20 -8 -7 6 -20 13 -28 16 -8 2 -2 3 14 1 16 -2
32 -6 34 -9z m-1741 -17 c-3 -8 -6 -5 -6 6 -1 11 2 17 5 13 3 -3 4 -12 1 -19z
m-1372 -7 c-3 -6 -11 -8 -17 -5 -6 4 -5 9 3 15 16 10 23 4 14 -10z m68 13 c3
-3 3 -12 0 -20 -6 -16 -53 -19 -53 -4 0 5 8 6 17 3 12 -5 15 -2 10 10 -6 16
12 24 26 11z m24 -36 c-3 -7 -5 -2 -5 12 0 14 2 19 5 13 2 -7 2 -19 0 -25z
m2933 0 c0 6 7 12 15 12 25 0 17 -37 -12 -60 -25 -19 -28 -20 -31 -5 -2 9 -1
28 3 43 5 20 8 23 16 11 6 -9 9 -10 9 -1z m140 -10 c0 -21 -16 -24 -23 -5 -4
8 -8 8 -14 2 -14 -17 -41 -14 -46 6 -4 15 1 18 39 16 34 -2 44 -6 44 -19z
m-3289 -8 c-27 -24 -41 -25 -41 -6 0 16 15 24 45 25 19 0 18 -1 -4 -19z m129
16 c0 -11 -19 -15 -25 -6 -3 5 1 10 9 10 9 0 16 -2 16 -4z m2690 -11 c-7 -9
-15 -13 -17 -11 -7 7 7 26 19 26 6 0 6 -6 -2 -15z m-2760 -10 c0 -8 -4 -15
-10 -15 -5 0 -10 7 -10 15 0 8 5 15 10 15 6 0 10 -7 10 -15z m2870 5 c0 -5 -7
-7 -15 -4 -8 4 -15 8 -15 10 0 2 7 4 15 4 8 0 15 -4 15 -10z m-1525 -10 c3 -5
1 -10 -4 -10 -6 0 -11 5 -11 10 0 6 2 10 4 10 3 0 8 -4 11 -10z m44 -26 c-10
-12 -14 -12 -20 -2 -13 20 -11 28 6 22 9 -4 15 0 16 7 0 11 2 11 6 1 3 -7 -1
-19 -8 -28z m56 -11 c-7 -17 -8 -17 -15 2 -5 11 -9 27 -9 35 -1 12 2 11 15 -2
11 -11 14 -23 9 -35z m-855 20 c0 -10 -4 -14 -8 -8 -4 6 -11 13 -16 18 -5 4
-2 7 7 7 10 0 17 -8 17 -17z m890 7 c0 -5 -4 -10 -10 -10 -5 0 -10 5 -10 10 0
6 5 10 10 10 6 0 10 -4 10 -10z m-947 -22 c4 -12 5 -24 3 -26 -7 -7 -36 30
-31 39 10 16 22 10 28 -13z m1237 7 c0 -8 -4 -15 -10 -15 -5 0 -10 7 -10 15 0
8 5 15 10 15 6 0 10 -7 10 -15z m-1120 -16 c14 -26 15 -25 -40 -32 -44 -5 -44
-5 -17 9 15 8 27 21 27 29 0 22 18 18 30 -6z m939 -21 c0 -18 -3 -27 -6 -20
-2 6 -11 12 -19 12 -19 0 -18 10 4 26 23 18 22 18 21 -18z m-866 -29 c-9 -9
-12 -7 -10 9 1 14 5 18 11 12 7 -7 6 -14 -1 -21z m652 11 c3 -5 1 -10 -4 -10
-6 0 -11 5 -11 10 0 6 2 10 4 10 3 0 8 -4 11 -10z m-1423 -18 c3 -11 -2 -23
-13 -30 -24 -16 -29 -15 -29 3 0 8 5 15 10 15 6 0 10 7 10 15 0 21 17 19 22
-3z m1052 -51 c-1 -2 -17 7 -35 20 -29 20 -30 23 -13 29 14 5 23 0 35 -19 9
-14 15 -28 13 -30z m86 30 c0 -22 -25 -45 -39 -36 -6 3 -2 14 10 26 11 11 17
25 13 31 -4 7 -3 8 4 4 7 -4 12 -15 12 -25z m-1240 -16 c0 -11 -10 -15 -37
-14 -24 1 -29 3 -15 6 12 2 22 9 22 14 0 5 7 9 15 9 8 0 15 -7 15 -15z m1030
-35 c0 -5 -4 -10 -10 -10 -5 0 -10 5 -10 10 0 6 5 10 10 10 6 0 10 -4 10 -10z
m-1575 -20 c3 -5 1 -10 -4 -10 -6 0 -11 5 -11 10 0 6 2 10 4 10 3 0 8 -4 11
-10z m1868 -13 c-2 -4 -3 -14 -3 -23 0 -14 -13 -15 -102 -11 -120 5 -140 9
-146 27 -4 10 2 11 19 6 53 -17 124 -18 153 -3 29 16 83 18 79 4z m34 -33 c-3
-3 -12 -4 -19 -1 -8 3 -5 6 6 6 11 1 17 -2 13 -5z m956 -35 c-9 -9 -12 -7 -10
9 1 14 5 18 11 12 7 -7 6 -14 -1 -21z m41 16 c-4 -8 -8 -15 -10 -15 -2 0 -4 7
-4 15 0 8 4 15 10 15 5 0 7 -7 4 -15z m-1004 -5 c0 -5 -5 -10 -11 -10 -5 0 -7
5 -4 10 3 6 8 10 11 10 2 0 4 -4 4 -10z m940 -10 c0 -5 -5 -10 -11 -10 -5 0
-7 5 -4 10 3 6 8 10 11 10 2 0 4 -4 4 -10z m201 -48 c-18 -2 -37 0 -42 5 -5 5
11 6 34 3 41 -4 41 -5 8 -8z m-26 -23 c18 -7 17 -8 -7 -10 -16 -1 -36 -2 -45
-3 -10 0 -19 7 -21 17 -3 15 1 17 25 11 15 -4 37 -11 48 -15z m69 5 c9 -3 14
-10 11 -15 -7 -10 -35 0 -35 12 0 11 3 11 24 3z m501 -14 c3 -5 15 -10 26 -10
23 0 25 -18 4 -26 -10 -4 -13 -13 -9 -27 5 -16 3 -19 -11 -14 -9 4 -25 7 -36
7 -16 0 -19 7 -19 40 0 33 3 40 19 40 11 0 23 -4 26 -10z m-3070 -10 c3 -5 1
-10 -4 -10 -6 0 -11 5 -11 10 0 6 2 10 4 10 3 0 8 -4 11 -10z m915 -31 c0 -11
-4 -17 -10 -14 -5 3 -10 13 -10 21 0 8 5 14 10 14 6 0 10 -9 10 -21z m2070 11
c0 -5 -2 -10 -4 -10 -3 0 -8 5 -11 10 -3 6 -1 10 4 10 6 0 11 -4 11 -10z
m-3040 -20 c0 -5 -9 -10 -20 -10 -11 0 -20 5 -20 10 0 6 9 10 20 10 11 0 20
-4 20 -10z m1015 0 c3 -5 -3 -10 -14 -10 -12 0 -21 5 -21 10 0 6 6 10 14 10 8
0 18 -4 21 -10z m1480 -29 c-13 -2 -15 -5 -5 -11 15 -9 5 -30 -16 -30 -9 0
-14 10 -14 29 0 32 17 44 39 27 12 -9 11 -12 -4 -15z m43 -29 c6 -18 -15 -14
-22 4 -4 10 -1 14 6 12 6 -2 14 -10 16 -16z m-1583 -2 c3 -5 18 -10 33 -10 16
0 32 -8 40 -20 11 -19 10 -20 -32 -20 -25 0 -47 4 -50 9 -3 4 -28 11 -55 15
-86 11 -71 28 31 34 15 1 30 -2 33 -8z m-515 -24 c0 -3 -4 -8 -10 -11 -5 -3
-10 -1 -10 4 0 6 5 11 10 11 6 0 10 -2 10 -4z m57 -18 c-3 -8 -6 -5 -6 6 -1
11 2 17 5 13 3 -3 4 -12 1 -19z m2838 -8 c3 -5 -1 -10 -10 -10 -9 0 -13 5 -10
10 3 6 8 10 10 10 2 0 7 -4 10 -10z m-2511 -37 c31 -73 56 -103 85 -103 12 0
29 -8 39 -18 15 -15 25 -16 52 -9 23 6 36 5 38 -2 2 -6 10 -11 18 -11 21 0 17
-18 -7 -30 -21 -12 -34 -7 -34 13 0 7 -8 13 -19 15 -11 2 -16 0 -12 -6 3 -6 2
-13 -4 -17 -5 -3 -10 0 -10 7 0 8 -4 7 -11 -4 -11 -19 -89 -22 -89 -3 0 7 -6
12 -12 13 -116 16 -111 14 -131 66 -19 53 -19 81 1 81 7 0 16 5 20 10 8 11 43
33 53 34 4 1 14 -16 23 -36z m2391 17 c7 -12 -22 -12 -50 0 -17 7 -15 9 12 9
17 1 35 -3 38 -9z m-2217 -31 c42 -16 15 -40 -40 -37 -10 1 -18 6 -18 11 0 5
-7 6 -16 3 -19 -7 -44 10 -44 30 0 10 11 12 48 7 26 -3 57 -10 70 -14z m2306
-15 c-18 -13 -18 -14 1 -11 11 1 26 6 34 11 11 7 11 10 0 18 -11 7 -9 8 4 4
10 -3 27 -6 38 -6 13 0 17 -5 12 -17 -5 -12 -2 -15 10 -10 11 4 17 1 17 -9 0
-14 2 -14 15 0 8 8 15 22 15 31 0 12 4 14 19 5 11 -5 26 -10 35 -10 8 0 27 -5
43 -11 22 -8 24 -12 13 -19 -11 -7 -8 -10 14 -10 24 0 27 -2 16 -15 -7 -9 -21
-13 -31 -10 -15 5 -19 1 -19 -17 0 -13 6 -30 13 -37 10 -10 6 -10 -17 0 -15 7
-23 15 -17 17 20 7 12 17 -15 19 -14 0 -31 7 -38 13 -8 10 -7 12 7 7 9 -4 17
-2 17 3 0 9 -14 14 -32 11 -5 0 -8 5 -8 12 0 8 -3 7 -10 -3 -6 -9 -5 -17 3
-22 7 -4 3 -10 -13 -17 -16 -6 -19 -10 -8 -10 11 -1 15 -7 11 -20 -3 -12 0
-19 9 -18 31 2 119 -16 111 -24 -4 -4 -28 -3 -53 3 -25 6 -52 10 -60 9 -8 0
-32 -1 -52 -1 -22 -1 -38 -6 -38 -13 0 -7 -6 -5 -13 5 -12 15 -14 15 -27 -5
-8 -12 -13 -27 -12 -33 1 -7 -7 -14 -18 -17 -11 -3 -20 -1 -20 4 0 5 5 9 10 9
6 0 10 7 10 15 0 8 -3 14 -7 14 -25 -4 -33 4 -33 35 0 48 9 66 28 60 15 -5 15
-4 0 6 -31 20 -17 89 16 77 8 -3 19 -1 23 5 5 9 8 9 11 -1 2 -7 -4 -19 -14
-27z m-2944 0 c0 -8 -5 -12 -10 -9 -6 4 -8 11 -5 16 9 14 15 11 15 -7z m2842
5 c21 2 28 -2 28 -15 0 -14 -3 -15 -12 -6 -16 16 -28 15 -28 -3 0 -8 7 -15 15
-15 16 0 18 -8 16 -50 -5 -78 -33 -107 -70 -72 -12 12 -12 15 0 23 8 5 9 9 4
9 -16 0 -11 90 6 101 10 6 10 9 2 9 -7 0 -13 7 -13 16 0 10 5 12 12 7 7 -4 25
-6 40 -4z m-2792 -18 c0 -11 -9 -23 -20 -26 -11 -3 -20 -11 -20 -16 0 -5 -9
-9 -21 -9 -14 0 -19 5 -17 18 2 11 12 17 26 16 15 -1 21 3 18 11 -6 15 2 25
21 25 7 0 13 -9 13 -19z m-90 -32 c0 -11 -4 -18 -10 -14 -5 3 -7 12 -3 20 7
21 13 19 13 -6z m330 -85 c0 -8 -5 -12 -10 -9 -6 4 -8 11 -5 16 9 14 15 11 15
-7z m-1316 -19 c-6 -16 -24 -21 -24 -7 0 11 11 22 21 22 5 0 6 -7 3 -15z
m1334 -33 c5 -30 -10 -28 -25 4 -10 22 -9 25 5 22 9 -2 18 -13 20 -26z m2425
-10 c-4 -13 -2 -13 10 3 14 17 16 17 17 4 0 -14 -19 -29 -36 -29 -2 0 -4 12
-4 26 0 14 4 23 10 19 5 -3 6 -13 3 -23z m-3380 4 c4 -10 1 -13 -9 -9 -15 6
-19 23 -5 23 5 0 11 -7 14 -14z m976 -53 c2 -10 6 -20 10 -23 10 -8 51 -94 51
-107 0 -6 16 -21 36 -32 51 -30 88 -22 135 28 20 23 44 41 53 41 9 0 22 11 28
25 13 29 28 33 28 8 1 -16 2 -16 15 1 15 19 15 19 15 -2 0 -13 -7 -25 -15 -28
-8 -4 -15 -12 -15 -19 0 -7 -7 -18 -15 -25 -8 -7 -15 -22 -15 -34 0 -11 -9
-36 -20 -53 -18 -30 -18 -33 -3 -33 14 0 13 -3 -5 -20 -12 -12 -22 -27 -22
-35 0 -20 -55 -28 -165 -23 -118 5 -124 10 -131 108 -3 40 -11 117 -18 170
l-12 97 30 -12 c17 -7 33 -21 35 -32z m-1272 11 c9 -23 -11 -38 -34 -25 -10 6
-12 11 -5 11 6 0 12 7 12 15 0 20 19 19 27 -1z m4163 -220 c0 -2 -9 -4 -20 -4
-11 0 -20 4 -20 9 0 5 9 7 20 4 11 -3 20 -7 20 -9z m-95 -3 c3 -5 1 -12 -4
-15 -13 -8 -42 4 -35 15 7 12 31 12 39 0z m-235 -99 c0 -13 -12 -22 -22 -16
-10 6 -1 24 13 24 5 0 9 -4 9 -8z m15 -42 c4 -6 -5 -10 -20 -10 -15 0 -24 4
-20 10 3 6 12 10 20 10 8 0 17 -4 20 -10z m-125 -32 c0 -8 -15 -12 -37 -9 -7
1 -13 -4 -13 -11 0 -8 -4 -6 -11 4 -5 10 -16 15 -24 12 -8 -4 -15 -1 -15 5 0
8 18 11 50 9 27 -2 50 -6 50 -10z m85 -8 c9 15 35 0 35 -20 0 -15 -5 -17 -34
-10 -40 9 -56 18 -56 30 0 6 10 6 25 0 15 -6 27 -6 30 0z m175 -41 c0 8 8 4
19 -10 11 -13 18 -25 16 -27 -6 -7 -95 21 -95 30 0 5 9 6 20 3 13 -4 20 -2 20
7 0 10 3 9 10 -2 8 -12 10 -12 10 -1z m-2653 -146 c-3 -10 -5 -4 -5 12 0 17 2
24 5 18 2 -7 2 -21 0 -30z m-1427 19 c0 -11 -70 -30 -76 -21 -6 10 31 27 59
28 9 1 17 -2 17 -7z m1471 -33 l-10 -24 0 26 c-1 14 2 29 6 33 12 12 14 -9 4
-35z m-60 -36 c-12 -20 -14 -14 -5 12 4 9 9 14 11 11 3 -2 0 -13 -6 -23z
m-1451 -36 c10 -4 8 -6 -7 -6 -12 -1 -24 3 -27 8 -7 11 6 24 13 13 3 -5 13
-12 21 -15z m-96 -83 c3 -8 2 -12 -4 -9 -6 3 -10 10 -10 16 0 14 7 11 14 -7z
m3832 -34 c22 0 17 -17 -7 -23 -11 -3 -23 -14 -26 -25 -3 -14 -11 -18 -30 -14
-18 3 -24 1 -19 -7 11 -17 -5 -13 -39 9 -16 11 -24 20 -17 20 6 0 12 5 12 11
0 5 -4 7 -10 4 -5 -3 -10 1 -10 9 0 26 48 20 52 -6 5 -33 24 -32 39 2 9 18 19
28 27 25 8 -3 20 -5 28 -5z m-183 -20 c31 -15 36 -31 7 -23 -11 3 -20 8 -20
12 0 3 -19 5 -42 5 -24 -1 -50 2 -58 6 -8 4 -24 4 -35 0 -22 -8 -45 -3 -45 11
0 13 162 4 193 -11z m-493 0 c0 -5 -16 -10 -35 -10 -19 0 -35 5 -35 10 0 6 16
10 35 10 19 0 35 -4 35 -10z m35 0 c3 -5 -1 -10 -10 -10 -9 0 -13 5 -10 10 3
6 8 10 10 10 2 0 7 -4 10 -10z m150 -18 c5 -4 24 -5 41 -3 49 4 86 -36 92 -99
3 -36 1 -50 -8 -50 -9 0 -10 -3 -1 -14 8 -9 9 -30 2 -67 -7 -45 -9 -48 -10
-19 -1 19 -6 42 -12 50 -8 12 -9 8 -6 -15 9 -51 -12 -127 -48 -182 -20 -29
-42 -53 -50 -53 -7 0 -20 -8 -27 -18 -13 -19 -101 -52 -136 -52 -19 0 -32 18
-32 42 0 7 15 8 43 4 27 -4 37 -3 28 3 -10 7 -1 11 35 16 57 9 87 22 79 36 -4
5 -3 9 2 8 25 -4 36 6 59 56 27 63 29 103 10 195 -9 39 -10 69 -5 74 5 6 9 0
9 -16 0 -14 7 -31 15 -38 9 -8 15 -8 15 -2 0 6 -6 12 -12 14 -10 4 -10 10 -1
31 10 21 10 27 0 28 -6 0 -22 2 -35 3 -16 2 -21 -1 -18 -11 3 -7 -10 -1 -29
14 -19 16 -35 31 -35 34 0 3 -19 12 -42 19 -70 22 -69 32 2 24 36 -3 69 -9 75
-12z m501 -66 c10 -11 6 -13 -24 -11 -44 3 -45 3 -38 13 8 13 48 12 62 -2z
m91 0 c-16 -13 -16 -14 8 -18 27 -6 44 6 23 16 -7 3 -4 5 7 3 11 -1 21 -9 23
-18 2 -12 -5 -16 -28 -14 -64 3 -85 7 -72 12 6 2 12 11 12 19 0 8 10 14 23 14
20 -1 21 -2 4 -14z m-201 -43 c-2 -3 -9 -2 -15 2 -8 4 -7 13 1 28 l13 22 3
-23 c2 -13 1 -26 -2 -29z m-548 15 c23 -6 42 -15 42 -20 0 -5 5 -6 11 -3 6 4
27 -9 47 -29 31 -32 35 -40 25 -56 -10 -15 -9 -21 4 -32 9 -7 18 -12 20 -10 8
6 23 1 23 -8 0 -5 -3 -9 -7 -8 -5 1 -18 -3 -31 -10 -41 -23 -135 22 -124 61 1
4 -2 7 -8 7 -5 0 -10 7 -10 15 0 8 -8 15 -17 15 -14 0 -15 2 -4 9 18 12 0 22
-30 16 -27 -5 -39 9 -39 46 0 29 9 30 98 7z m512 -2 c0 -3 -4 -8 -10 -11 -5
-3 -10 -1 -10 4 0 6 5 11 10 11 6 0 10 -2 10 -4z m-365 -26 c16 -17 16 -20 3
-15 -9 4 -19 13 -22 21 -7 19 -2 18 19 -6z m35 0 c0 -5 -2 -10 -4 -10 -3 0 -8
5 -11 10 -3 6 -1 10 4 10 6 0 11 -4 11 -10z m10 -71 c0 -7 -6 -4 -15 7 -19 25
-19 40 0 20 8 -8 15 -20 15 -27z m825 11 c3 -5 -3 -10 -14 -10 -11 0 -23 -4
-26 -10 -3 -5 -15 -10 -27 -10 -11 0 -35 -16 -52 -35 -36 -39 -46 -43 -46 -17
0 42 145 115 165 82z m-1000 -151 c3 -4 -8 -3 -25 2 -16 6 -32 15 -35 20 -3 4
8 3 25 -2 16 -6 32 -15 35 -20z m144 6 c-8 -9 -40 -18 -70 -20 -39 -3 -46 -2
-24 3 17 5 40 14 50 20 11 6 29 12 40 12 17 0 18 -2 4 -15z m108 -47 c-3 -7
-5 -2 -5 12 0 14 2 19 5 13 2 -7 2 -19 0 -25z m673 8 c0 -2 -11 -11 -25 -20
-14 -9 -25 -13 -25 -8 0 5 10 14 23 20 27 13 27 13 27 8z m-83 -38 c-3 -7 -5
-2 -5 12 0 14 2 19 5 13 2 -7 2 -19 0 -25z m-600 -30 c-3 -8 -6 -5 -6 6 -1 11
2 17 5 13 3 -3 4 -12 1 -19z m218 -18 c3 -5 1 -10 -4 -10 -6 0 -11 5 -11 10 0
6 2 10 4 10 3 0 8 -4 11 -10z m299 -55 c-4 -8 -8 -15 -10 -15 -2 0 -4 7 -4 15
0 8 4 15 10 15 5 0 7 -7 4 -15z m-317 -17 c-3 -8 -6 -5 -6 6 -1 11 2 17 5 13
3 -3 4 -12 1 -19z"/>
<path d="M1410 2149 c0 -9 7 -22 15 -29 19 -16 19 0 0 26 -12 16 -14 16 -15 3z"/>
<path d="M1670 2011 c8 -5 33 -12 55 -15 28 -4 33 -3 15 2 -46 16 -86 23 -70
13z"/>
<path d="M1833 1983 c9 -2 23 -2 30 0 6 3 -1 5 -18 5 -16 0 -22 -2 -12 -5z"/>
<path d="M4300 1558 c0 -16 5 -28 10 -28 13 0 13 20 0 40 -8 12 -10 9 -10 -12z"/>
<path d="M4340 1566 c0 -13 39 -30 48 -21 8 7 -20 35 -34 35 -8 0 -14 -6 -14
-14z"/>
<path d="M4330 1526 c0 -10 28 -13 41 -5 10 6 7 9 -13 9 -16 0 -28 -2 -28 -4z"/>
<path d="M4160 1459 c0 -5 5 -7 10 -4 6 3 10 8 10 11 0 2 -4 4 -10 4 -5 0 -10
-5 -10 -11z"/>
<path d="M3507 499 c15 -13 53 -21 53 -10 0 6 -3 11 -7 12 -5 0 -18 2 -31 3
-12 2 -19 -1 -15 -5z"/>
<path d="M3261 446 c2 -2 22 -6 44 -9 28 -5 34 -4 20 3 -19 8 -73 14 -64 6z"/>
<path d="M3350 426 c0 -2 7 -7 16 -10 8 -3 12 -2 9 4 -6 10 -25 14 -25 6z"/>
<path d="M3117 2293 c-4 -3 -7 -11 -7 -17 0 -6 5 -5 12 2 6 6 9 14 7 17 -3 3
-9 2 -12 -2z"/>
<path d="M3014 2279 c-4 -7 -21 -9 -42 -6 -46 8 -37 0 21 -17 45 -13 47 -13
47 6 0 17 4 19 26 14 17 -5 23 -3 19 4 -8 13 -62 13 -71 -1z"/>
<path d="M2908 2273 c7 -3 16 -2 19 1 4 3 -2 6 -13 5 -11 0 -14 -3 -6 -6z"/>
<path d="M2950 2239 c0 -5 9 -9 20 -9 11 0 20 2 20 4 0 2 -9 6 -20 9 -11 3
-20 1 -20 -4z"/>
<path d="M4155 240 c3 -5 10 -10 16 -10 5 0 9 5 9 10 0 6 -7 10 -16 10 -8 0
-12 -4 -9 -10z"/>
<path d="M4540 190 c30 -22 50 -31 50 -22 0 6 -8 12 -17 16 -10 3 -25 9 -33
12 -13 5 -13 4 0 -6z"/>
<path d="M4132 100 c0 -14 2 -19 5 -12 2 6 2 18 0 25 -3 6 -5 1 -5 -13z"/>
</g>
</svg>
